<svg width="221" height="207" viewBox="0 0 221 207" fill="none" xmlns="http://www.w3.org/2000/svg">
<path d="M89.5775 182.957L15.8849 111.508C5.93009 101.853 0.218405 88.6402 0.00613405 74.7753C-0.206137 60.9105 5.09839 47.5291 14.753 37.5744L35.7878 15.8825C45.4438 5.92921 58.6586 0.218373 72.5255 0.00613313C86.3924 -0.206107 99.7758 5.09763 109.732 14.7508L205.112 107.232C210.042 112.012 213.982 117.716 216.707 124.019C219.432 130.321 220.889 137.099 220.994 143.964C221.099 150.83 219.85 157.649 217.32 164.032C214.789 170.415 211.025 176.237 206.244 181.165C191.006 196.864 170.158 205.871 148.282 206.207C126.405 206.543 105.29 198.181 89.5775 182.957Z" fill="#FAD06C"/>
</svg>
