<svg width="320" height="37" viewBox="0 0 320 37" fill="none" xmlns="http://www.w3.org/2000/svg">
<path d="M0 0H320V37H0V0Z" fill="#3A3A3A"/>
<path d="M72.8267 19.0533L85.8267 11.5478L85.8267 26.5589L72.8267 19.0533Z" stroke="white" stroke-width="2"/>
<mask id="path-3-inside-1_1_38" fill="white">
<rect x="229.547" y="10.9467" width="15.36" height="15.36" rx="1"/>
</mask>
<rect x="229.547" y="10.9467" width="15.36" height="15.36" rx="1" stroke="white" stroke-width="4" mask="url(#path-3-inside-1_1_38)"/>
<path d="M152.747 15.0279V24.4533C152.747 25.0056 153.194 25.4533 153.747 25.4533H165.4C165.952 25.4533 166.4 25.0056 166.4 24.4533V15.0279C166.4 14.6876 166.227 14.3707 165.941 14.1867L160.114 10.441C159.785 10.2292 159.362 10.2292 159.033 10.441L153.206 14.1867C152.92 14.3707 152.747 14.6876 152.747 15.0279Z" stroke="white" stroke-width="2"/>
</svg>
