<svg width="39" height="44" viewBox="0 0 39 44" fill="none" xmlns="http://www.w3.org/2000/svg">
<path d="M38.5383 40.1298C37.2917 45.6263 30.8873 44.7331 22.2696 40.7874C11.9833 36.0712 -2.62666 19.5768 0.406234 6.4146C0.685966 5.20242 1.11785 4.0246 1.69204 2.92039C8.70499 -10.6442 36.7863 27.1001 38.1702 33.2935C38.7837 35.5166 38.9063 37.8477 38.5383 40.1298Z" fill="#F37352"/>
<path d="M38.5383 40.1298C37.2917 45.6263 30.8873 44.7331 22.2696 40.7874C11.9833 36.0712 -2.62666 19.5768 0.406234 6.41463C4.94576 17.7414 15.6542 35.9191 38.5383 40.1298Z" fill="#C0593A"/>
<path d="M23.6093 18.0898C26.0434 20.7399 35.6427 34.6922 34.7888 35.5952C33.9152 36.5178 21.6806 23.6256 17.9116 19.1253C15.3351 16.0532 5.57388 2.55239 6.42289 1.82116C7.37987 0.986864 20.4341 14.63 23.6093 18.0898Z" fill="#3C4978"/>
</svg>
