<svg width="136" height="60" viewBox="0 0 136 60" fill="none" xmlns="http://www.w3.org/2000/svg">
<g opacity="0.78" clip-path="url(#clip0_1_1294)">
<path d="M136 38.4171C136 50.2653 122.245 59.8696 105.276 59.8696C98.293 59.8696 91.8561 58.2444 86.6973 55.5055C81.5385 58.2444 75.1016 59.8696 68.119 59.8696C59.3126 59.8696 51.3738 57.2837 45.7765 53.1411C41.3266 54.89 36.1911 55.8865 30.7244 55.8865C13.7553 55.8865 0 46.2823 0 34.4341C0 22.5826 13.7553 12.9783 30.7244 12.9783C35.8973 12.9783 40.7669 13.8707 45.0442 15.447C48.7663 6.5201 60.5673 0 74.5512 0C89.3187 0 101.656 7.27567 104.599 16.9711C104.823 16.9679 105.052 16.9646 105.276 16.9646C122.245 16.9646 136 26.5689 136 38.4171Z" fill="#FCFCFC"/>
</g>
<defs>
<clipPath id="clip0_1_1294">
<rect width="135.294" height="59.5588" fill="white" transform="scale(1.00522)"/>
</clipPath>
</defs>
</svg>
