<svg width="458" height="285" viewBox="0 0 458 285" fill="none" xmlns="http://www.w3.org/2000/svg">
<path d="M284.383 261.566L89.4486 283.461C63.1126 286.415 38.9509 278.848 22.2781 262.425C5.60535 246.001 -2.21312 222.065 0.542435 195.882L6.54224 138.833C9.30149 112.65 22.4088 86.3655 42.9811 65.761C63.5534 45.1564 89.906 31.9194 116.242 28.9613L368.55 0.628141C381.591 -0.836746 394.236 0.26658 405.762 3.87518C417.288 7.48377 427.47 13.5269 435.726 21.6595C443.981 29.7921 450.15 39.8548 453.878 51.273C457.607 62.6912 458.823 75.2413 457.456 88.2065C453.093 129.515 432.412 170.979 399.958 203.487C367.504 235.994 325.934 256.884 284.383 261.566Z" fill="#FAD06C"/>
<path d="M227.785 203.173L352.605 232.792C369.494 236.8 386.939 235.381 401.104 228.849C415.268 222.317 424.992 211.206 428.135 197.961L445.046 126.692C446.603 120.134 446.497 113.249 444.734 106.43C442.972 99.6113 439.588 92.9927 434.775 86.952C429.963 80.9114 423.816 75.5669 416.686 71.2237C409.555 66.8806 401.582 63.6239 393.219 61.6396L359.27 53.5835C318.281 43.857 275.94 47.2992 241.563 63.1529C207.185 79.0066 183.586 105.973 175.958 138.12C172.815 151.366 176.51 165.66 186.229 177.86C195.949 190.06 210.897 199.165 227.785 203.173Z" fill="#F37352"/>
</svg>
