<svg width="63" height="47" viewBox="0 0 63 47" fill="none" xmlns="http://www.w3.org/2000/svg">
<path d="M37.9349 2.3965L30.9817 0.754679C15.2504 -2.9574 8.45742 8.23116 8.45742 8.23116C-9.24934 32.0735 6.34464 36.3644 6.34464 36.3644L28.6694 41.6333L50.9942 46.9022C50.9942 46.9022 66.8596 50.0386 61.6856 20.7966C61.6856 20.7966 60.6129 7.75039 44.8815 4.03831L37.9349 2.3965Z" fill="#F37352"/>
<path d="M1.71995 32.0535C1.71995 32.0535 35.3249 42.9019 47.4161 40.6256C59.5073 38.3493 58.6341 32.2628 58.6341 32.2628C58.6341 32.2628 59.6839 12.4727 51.7823 6.17692C51.7823 6.17692 56.9039 9.61099 58.3561 11.9364C59.8115 14.2617 66.104 28.9661 60.7468 41.4073C60.7468 41.4073 58.9219 46.1496 52.9924 46.5584C47.0629 46.9672 5.86373 35.7165 5.86373 35.7165L3.04779 33.9079L1.71995 32.0535Z" fill="#C0593A"/>
</svg>
