<svg width="207" height="180" viewBox="0 0 207 180" fill="none" xmlns="http://www.w3.org/2000/svg">
<path d="M52.2705 0H154.729C168.592 0 181.888 5.50623 191.69 15.3074C201.493 25.1086 207 38.4018 207 52.2627V126.843C207 133.706 205.648 140.502 203.021 146.843C200.394 153.184 196.544 158.945 191.69 163.798C186.837 168.651 181.074 172.501 174.733 175.127C168.391 177.754 161.594 179.106 154.729 179.106H126.862C93.216 179.106 60.9482 165.742 37.157 141.954C13.3658 118.167 0 85.9035 0 52.2627C0 38.4018 5.50706 25.1086 15.3097 15.3074C25.1123 5.50623 38.4075 0 52.2705 0Z" fill="#C4C4C4"/>
</svg>
