<svg width="19" height="13" viewBox="0 0 19 13" fill="none" xmlns="http://www.w3.org/2000/svg">
<path d="M7.48597 12.3437C4.76253 11.7596 2.92355 9.99405 1.75207 7.97484C-0.353917 4.3536 -0.317206 -0.0920023 0.587268 0.0014489C1.99237 0.151638 4.79257 3.082 8.49724 3.87633C12.7493 4.78748 15.96 3.95644 18.1728 4.30354C18.2729 4.31689 18.3664 4.33357 18.4631 4.35694C20.6793 4.83087 15.8432 14.1326 7.48597 12.3437Z" fill="#3A507E"/>
<path d="M7.48594 12.3437C4.76251 11.7596 2.92353 9.99407 1.75205 7.97486C5.59356 8.10502 13.2465 7.85805 18.1694 4.30356C18.2695 4.31691 18.363 4.3336 18.4598 4.35696C20.6792 4.83089 15.8431 14.1326 7.48594 12.3437Z" fill="#3C4978"/>
</svg>
