<svg width="150" height="120" viewBox="0 0 150 120" fill="none" xmlns="http://www.w3.org/2000/svg">
<g clip-path="url(#clip0_1_17)">
<path d="M74.1742 7.20385C75.6719 7.20385 76.886 5.98263 76.886 4.47617C76.886 2.96972 75.6719 1.7485 74.1742 1.7485C72.6765 1.7485 71.4624 2.96972 71.4624 4.47617C71.4624 5.98263 72.6765 7.20385 74.1742 7.20385Z" fill="#F37352" stroke="#F37352" stroke-width="2" stroke-miterlimit="10"/>
<path d="M85.6297 21.5066H62.7186V26.8396H85.6297V21.5066Z" fill="#F37352" stroke="#F37352" stroke-width="2" stroke-miterlimit="10"/>
<path d="M75.5301 28.1335H64.0745C38.1561 28.1335 31.6722 48.2238 31.6722 48.2238C12.8113 92.2162 38.7472 93.1779 38.7472 93.1779H75.5475H112.348C112.348 93.1779 138.266 92.2162 119.423 48.2238C119.423 48.2238 112.939 28.1335 87.0204 28.1335H75.5301Z" fill="#F37352" stroke="#F37352" stroke-width="2" stroke-miterlimit="10"/>
<path d="M67.1862 48.7484C51.4022 48.7484 47.4388 56.3369 47.4388 56.3369C35.9485 72.9477 51.7498 73.2974 51.7498 73.2974H74.1568H96.5638C96.5638 73.2974 112.348 72.9302 100.875 56.3369C100.875 56.3369 96.9289 48.7484 81.1275 48.7484H67.1862Z" fill="white" stroke="white" stroke-miterlimit="10"/>
<path d="M74.1742 21.5066V4.47617" stroke="#F37352" stroke-width="2" stroke-miterlimit="10"/>
<path d="M30.7125 114.396C36.6467 112.029 36.7629 98.205 30.9719 83.5203C25.181 68.8357 15.6758 58.8508 9.74159 61.2185C3.80736 63.5862 3.6912 77.4099 9.48216 92.0945C15.2731 106.779 24.7783 116.764 30.7125 114.396Z" fill="#3C4979" stroke="#3A517F" stroke-width="6" stroke-miterlimit="10"/>
<path d="M140.496 92.1022C146.287 77.4176 146.171 63.5939 140.236 61.2263C134.302 58.8586 124.797 68.8434 119.006 83.528C113.215 98.2127 113.331 112.036 119.266 114.404C125.2 116.772 134.705 106.787 140.496 92.1022Z" fill="#3C4979" stroke="#3A517F" stroke-width="6" stroke-miterlimit="10"/>
</g>
<defs>
<clipPath id="clip0_1_17">
<rect width="150" height="120" fill="white"/>
</clipPath>
</defs>
</svg>
