<svg width="43" height="40" viewBox="0 0 43 40" fill="none" xmlns="http://www.w3.org/2000/svg">
<path d="M0.00440778 4.65004C0.489455 -0.954953 6.94697 -0.945155 16.0061 1.79365C26.8192 5.06159 43.5117 19.3925 42.2966 32.822C42.1839 34.0615 41.9194 35.2815 41.5029 36.4525C36.4075 50.8177 3.50263 17.3054 1.29297 11.3672C0.391468 9.25064 -0.0494864 6.95769 0.00440778 4.65004Z" fill="#F37352"/>
<path d="M0.00427416 4.65007C0.489321 -0.954924 6.94684 -0.945126 16.006 1.79368C26.8191 5.06162 43.5116 19.3926 42.2965 32.822C36.2701 22.2343 23.2131 5.70835 0.00427416 4.65007Z" fill="#C0593A"/>
<path d="M17.765 24.4244C14.9968 22.1364 3.6104 9.63785 4.32572 8.62855C5.06554 7.59477 18.9163 18.6872 23.2573 22.6263C26.2214 25.3161 37.7107 37.3394 36.9709 38.1772C36.1429 39.1326 21.3759 27.4131 17.765 24.4244Z" fill="#3C4978"/>
</svg>
