<svg width="86" height="71" viewBox="0 0 86 71" fill="none" xmlns="http://www.w3.org/2000/svg">
<path d="M85.2821 21.2411C85.2821 44.1261 69.2283 71 43.7216 71C27.9177 71 14.912 61.3217 7.30653 48.3846C2.62173 40.5047 0.0980085 31.5222 0 22.3535C0 -1.09011 25.5851 0.0271842 41.8006 0.0271842C59.5843 0.0271842 80.6953 -1.33513 84.6303 15.2283C85.0811 17.1983 85.3017 19.2172 85.2821 21.2411Z" fill="#F37352"/>
<path d="M85.2821 21.2411C85.2821 44.1261 69.2283 71 43.7216 71C27.9177 71 14.912 61.3217 7.30657 48.3845C23.1447 55.843 68.2678 71.2891 84.6255 15.2283C85.0812 17.2032 85.3017 19.2172 85.2821 21.2411Z" fill="#C0593A"/>
</svg>
