<svg width="156" height="99" viewBox="0 0 156 99" fill="none" xmlns="http://www.w3.org/2000/svg">
<g opacity="0.78" clip-path="url(#clip0_1_1292)">
<path d="M156 63.2721C156 82.7858 140.222 98.6038 120.757 98.6038C112.748 98.6038 105.364 95.9272 99.4469 91.4162C93.5294 95.9272 86.1459 98.6038 78.1364 98.6038C68.035 98.6038 58.9287 94.3449 52.5083 87.522C47.4041 90.4024 41.5133 92.0438 35.2427 92.0438C15.7782 92.0438 0 76.2258 0 56.7121C0 37.193 15.7782 21.375 35.2427 21.375C41.1763 21.375 46.762 22.8447 51.6683 25.4408C55.9379 10.7384 69.4742 0 85.5146 0C102.454 0 116.605 11.9829 119.981 27.9511C120.238 27.9457 120.5 27.9403 120.757 27.9403C140.222 27.9403 156 43.7583 156 63.2721Z" fill="#FCFCFC"/>
</g>
<defs>
<clipPath id="clip0_1_1292">
<rect width="155.882" height="98.5294" fill="white" transform="scale(1.00075)"/>
</clipPath>
</defs>
</svg>
